<svg version="1.2" xmlns="http://www.w3.org/2000/svg" viewBox="0 0 159 32" width="159" height="32"><defs><clipPath clipPathUnits="userSpaceOnUse" id="cp1"><path d="m51.1 10.63h2.03v4.49h5.3v-4.49h2.04v10.5h-2.04v-4.26h-5.3v4.26h-2.03zm34.87 0.57q1.3 0.71 2.04 1.94 0.74 1.23 0.74 2.73 0 1.5-0.74 2.74-0.74 1.23-2.04 1.95-1.3 0.72-2.88 0.72-1.58 0-2.88-0.72-1.3-0.72-2.04-1.95-0.75-1.24-0.75-2.74 0-1.5 0.75-2.73 0.74-1.23 2.04-1.94 1.3-0.7 2.88-0.7 1.58 0 2.88 0.7zm-4.66 1.57q-0.83 0.47-1.32 1.29-0.49 0.82-0.49 1.81 0 0.99 0.5 1.81 0.49 0.83 1.32 1.31 0.83 0.48 1.8 0.48 0.96 0 1.78-0.48 0.82-0.48 1.29-1.31 0.48-0.82 0.48-1.81 0-0.99-0.48-1.81-0.47-0.82-1.29-1.29-0.82-0.47-1.78-0.47-0.97 0-1.81 0.47zm18.74-2.14h1.97v10.5h-1.93l-5.46-7.23v7.23h-1.99v-10.5h1.92l5.49 7.25zm6.68 0h2.03v10.5h-2.03zm13.11 2.02q-0.77-0.36-1.56-0.36-0.99 0-1.81 0.47-0.82 0.47-1.29 1.28-0.47 0.82-0.47 1.8 0 0.97 0.47 1.79 0.47 0.82 1.29 1.29 0.82 0.47 1.81 0.47 0.76 0 1.53-0.33 0.76-0.33 1.35-0.91l1.2 1.32q-0.83 0.84-1.94 1.32-1.11 0.49-2.25 0.49-1.53 0-2.81-0.72-1.27-0.72-2-1.96-0.73-1.24-0.73-2.74 0-1.5 0.74-2.72 0.75-1.24 2.03-1.94 1.28-0.7 2.85-0.7 1.14 0 2.23 0.45 1.09 0.45 1.87 1.24l-1.19 1.47q-0.56-0.65-1.32-1.01zm6.28-2.02h2.04v8.69h4.59v1.81h-6.63zm10.31 0h7.98v1.76h-5.94v2.59h4.33v1.76h-4.33v2.64h5.94v1.75h-7.98zm19.41 0.67q1.26 0.67 1.97 1.87 0.72 1.2 0.72 2.71 0 1.51-0.72 2.71-0.73 1.19-2 1.87-1.28 0.67-2.9 0.67h-4.35v-10.5h4.42q1.6 0 2.86 0.67zm-1.06 7.62q0.78-0.44 1.23-1.23 0.44-0.79 0.44-1.79 0-1.01-0.46-1.81-0.46-0.81-1.25-1.25-0.8-0.44-1.79-0.44h-2.35v6.96h2.43q0.97 0 1.75-0.44zm-109.97-6.27q-0.77-0.36-1.56-0.36-0.99 0-1.81 0.47-0.82 0.47-1.29 1.28-0.47 0.82-0.47 1.8 0 0.97 0.47 1.79 0.47 0.82 1.29 1.29 0.82 0.47 1.81 0.47 0.76 0 1.53-0.33 0.76-0.33 1.36-0.91l1.2 1.32q-0.84 0.84-1.95 1.32-1.11 0.49-2.25 0.49-1.53 0-2.81-0.72-1.27-0.72-2-1.96-0.73-1.24-0.73-2.74 0-1.5 0.74-2.72 0.75-1.24 2.03-1.94 1.28-0.7 2.85-0.7 1.14 0 2.23 0.45 1.1 0.45 1.87 1.24l-1.18 1.47q-0.57-0.65-1.33-1.01zm27.48 4.63q0.38 0.17 0.68 0.49 0.62 0.65 0.62 1.87v1.61h-1.95v-1.45c0-0.56-0.5-1.67-2.12-1.74-0.02 0-2.37 0-2.37 0v3.1h-2.03v-10.53h4.34q2 0 3.1 0.95 1.1 0.94 1.1 2.67 0 1.81-1.1 2.81-0.13 0.12-0.27 0.22zm-1.17-1.49q0.62-0.5 0.62-1.48 0-0.96-0.62-1.44-0.61-0.48-1.76-0.48h-2.21v3.89h2.21q1.15 0 1.76-0.49z"/></clipPath><clipPath clipPathUnits="userSpaceOnUse" id="cp2"><path d="m10.08 24.37c1.73 1.18 3.81 1.88 6.06 1.88 2.54 0 4.87-0.9 6.68-2.39l1.35 1.33c-2.16 1.83-4.96 2.94-8.03 2.94-2.09 0-4.05-0.52-5.77-1.42l-1.41 1.37c2.11 1.22 4.56 1.92 7.18 1.92 3.59 0 6.87-1.31 9.38-3.48l1.34 1.33c-2.85 2.5-6.6 4.03-10.72 4.03-3.82 0-7.34-1.32-10.1-3.51zm-4.8 2.08l-0.66 0.65c-2.86-2.88-4.63-6.82-4.63-11.17 0-8.8 7.23-15.94 16.15-15.94 4.4 0 8.39 1.75 11.31 4.57l-1.35 1.33c-2.57-2.49-6.08-4.02-9.96-4.02-7.87 0-14.25 6.3-14.25 14.06 0 3.16 1.06 6.07 2.84 8.42l1.36-1.33c-1.45-2-2.3-4.44-2.3-7.09 0-6.73 5.53-12.19 12.35-12.19 3.35 0 6.4 1.33 8.62 3.47l-3.53 3.49-0.5 0.49-0.18-0.17c-1.18-1.03-2.72-1.65-4.41-1.65-3.68 0-6.65 2.94-6.65 6.56 0 3.63 2.97 6.56 6.65 6.56 1.49 0 2.87-0.48 3.98-1.3l1.35 1.33c-1.46 1.16-3.32 1.85-5.33 1.85-4.72 0-8.55-3.78-8.55-8.44 0-4.66 3.83-8.44 8.55-8.44 1.62 0 3.13 0.45 4.42 1.22l1.39-1.35c-1.66-1.1-3.66-1.74-5.81-1.74-5.77 0-10.45 4.62-10.45 10.31 0 2.8 1.13 5.34 2.96 7.19zm21.3-10.51c0-2.23-0.71-4.28-1.93-5.97l1.36-1.34c1.55 2.04 2.47 4.57 2.47 7.31 0 3.02-1.12 5.8-2.97 7.93l-1.35-1.33c1.51-1.79 2.42-4.09 2.42-6.6z"/></clipPath></defs><style>.a{fill:#fff}</style><g clip-path="url(#cp1)"><path class="a" d="m35.9 8.8h124.3v14.2h-124.3z"/></g><g clip-path="url(#cp2)"><path class="a" d="m-1.7-1.7h31.9v35.2h-31.9z"/></g></svg>