<svg version="1.2" xmlns="http://www.w3.org/2000/svg" viewBox="0 0 153 30" width="153" height="30"><style>.a{fill:#313e48}.b{fill:#fff}</style><path fill-rule="evenodd" class="a" d="m22.2 16.1c1.2 0.7 2 2 2 3.4 0 1.4-0.8 2.7-2 3.4l-10.6 6.4c-0.6 0.3-1.3 0.5-2 0.5-0.8 0-1.6-0.2-2.3-0.7l-5.4-3.9c-1.1-0.8-1.7-2-1.7-3.2v-4.9c0-0.8 0.3-1.5 0.7-2.1-0.4-0.7-0.7-1.3-0.7-2.1v-4.9c0-1.3 0.6-2.5 1.7-3.2l5.4-3.9c0.6-0.5 1.5-0.7 2.3-0.7 0.7 0 1.4 0.2 2 0.5l10.6 6.4c1.2 0.7 2 2 2 3.4 0 1.4-0.8 2.7-2 3.4l-10.6 6.3c-0.6 0.4-1.3 0.6-2 0.6-0.8 0-1.6-0.3-2.3-0.8l-2.8-1.9v-0.9l2-1.4 2.5 1.8c0.2 0.2 0.4 0.2 0.6 0.2q0.3 0 0.5-0.2l4.4-2.6-4.4-2.6q-0.2-0.2-0.5-0.2c-0.2 0-0.4 0-0.6 0.2l-5.4 3.9c-0.3 0.2-0.4 0.5-0.4 0.8v4.9c0 0.3 0.1 0.6 0.4 0.8l5.4 3.9c0.2 0.1 0.4 0.2 0.6 0.2q0.3 0 0.5-0.2l10.6-6.3c0.3-0.2 0.5-0.5 0.5-0.9 0-0.3-0.2-0.6-0.5-0.8l-2-1.2 3-1.7zm-19.1-8.1v4.9l4.1-3c0.7-0.5 1.5-0.7 2.3-0.7 0.7 0 1.5 0.1 2.1 0.5l5.8 3.5 3.3-2c0.3-0.1 0.4-0.4 0.4-0.8 0-0.4-0.1-0.7-0.4-0.8l-10.6-6.4q-0.3-0.1-0.6-0.1c-0.1 0-0.3 0-0.5 0.2l-5.5 3.9c-0.2 0.2-0.4 0.5-0.4 0.8z"/><path fill-rule="evenodd" class="b" d="m39.3 4.8h8.1q2.4 0 4.2 1.6 1.7 1.6 1.7 3.7 0 1.2-0.5 2.2-0.5 1-1 1.4l-0.5 0.4c0.1 0 0.2 0.1 0.3 0.2q0.2 0.1 0.7 0.6 0.5 0.4 0.9 0.9 0.4 0.6 0.7 1.4 0.4 0.8 0.4 1.8c0 1.6-0.7 2.9-1.9 4.1q-1.8 1.7-4.6 1.7h-8.5zm3.1 2.8v5.4h5q1.2 0 2-0.8 0.7-0.8 0.7-1.9 0-1.2-0.7-2-0.8-0.7-2-0.7zm5.5 14.6q1.4 0 2.3-1 1-0.9 1-2.3 0-1.4-1-2.4-0.9-0.9-2.3-0.9h-5.5v6.6z"/><path class="b" d="m64.3 13.4q-1.7 0-2.6 1-1 1.1-1 3v7.4h-2.9v-13.7h2.9v1.4l0.2-0.2c0.1-0.1 0.2-0.2 0.5-0.4q0.4-0.3 0.9-0.5 0.4-0.3 1.1-0.5 0.7-0.1 1.5-0.1h0.7v2.7q-0.6-0.1-1.3-0.1z"/><path class="b" d="m70.6 8q-0.5 0.5-1.2 0.5-0.8 0-1.3-0.5-0.5-0.5-0.5-1.3 0-0.7 0.5-1.2 0.5-0.5 1.3-0.5 0.7 0 1.2 0.5 0.5 0.5 0.5 1.3 0 0.7-0.5 1.2zm0.2 16.8h-2.9v-13.7h2.9z"/><path class="b" d="m76.7 6.5h2.5v4.6h2.9v2.5h-2.9v7.2q0 0.7 0.5 1.2 0.5 0.5 1.3 0.5 0.3 0 0.7 0 0.3-0.1 0.5-0.2l0.2-0.1v2.6q-0.8 0.3-2 0.3-4 0-4-4.3v-7.2h-2.6v-2.5h1.5q1.4 0 1.4-1.7z"/><path fill-rule="evenodd" class="b" d="m86.6 18.9q0.3 1.5 1.5 2.6 1.2 1 2.9 1 1.2 0 2.2-0.5c0.7-0.4 1.2-0.7 1.5-1.1l0.4-0.5 1.9 1.8q-0.1 0.1-0.3 0.3-0.2 0.2-0.7 0.7-0.6 0.5-1.2 0.9-0.7 0.3-1.7 0.7-1 0.3-2.1 0.3-3 0-5.1-2.2-2.1-2.1-2.1-5.1 0-2.9 2.1-5 2-2.1 4.9-2.1 2.9 0 4.8 2 1.9 1.9 1.9 4.8l-0.1 1.4zm1.6-4.8q-1 0.9-1.4 2.4h8q-0.3-1.5-1.4-2.4-1-0.9-2.6-0.9-1.5 0-2.6 0.9z"/><path class="b" d="m110.8 11.1l3.2 9.4 3.1-9.4h3.1l-4.8 13.7h-2.7l-3.1-9.1-3.2 9.1h-2.7l-4.7-13.7h3l3.1 9.4 3.2-9.4z"/><path fill-rule="evenodd" class="b" d="m124.4 18.9q0.2 1.5 1.4 2.6 1.2 1 2.9 1 1.2 0 2.2-0.5c0.7-0.4 1.2-0.7 1.5-1.1l0.4-0.5 1.9 1.8c-0.1 0.1-0.1 0.2-0.3 0.3q-0.1 0.2-0.7 0.7-0.6 0.5-1.2 0.9-0.7 0.3-1.7 0.7-1 0.3-2.1 0.3-3 0-5.1-2.2-2.1-2.1-2.1-5.1 0-2.9 2.1-5 2-2.1 4.9-2.1 2.9 0 4.8 2 1.9 1.9 1.9 4.8l-0.1 1.4zm1.5-4.8q-1 0.9-1.4 2.4h7.9q-0.2-1.5-1.3-2.4-1-0.9-2.6-0.9c-1 0-1.9 0.3-2.6 0.9z"/><path fill-rule="evenodd" class="b" d="m150.7 12.9q2 2.1 2 5.1 0 2.9-2 5-2 2.1-4.8 2.1-0.7 0-1.5-0.2-0.7-0.2-1.2-0.4-0.5-0.3-0.9-0.6-0.4-0.3-0.6-0.4l-0.2-0.2v1.5h-2.9v-20h2.9v7.9q0.2-0.2 0.6-0.6 0.3-0.3 1.5-0.8 1.1-0.5 2.3-0.5 2.8 0 4.8 2.1zm-2.1 8.3q1.2-1.4 1.2-3.3 0-1.9-1.2-3.2-1.3-1.3-2.9-1.3-1.6 0-2.9 1.3-1.3 1.3-1.3 3.2 0 1.9 1.3 3.3 1.2 1.3 2.9 1.3 1.6 0 2.9-1.3z"/></svg>