<svg version="1.2" xmlns="http://www.w3.org/2000/svg" viewBox="0 0 130 33" width="130" height="33"><style>.a{fill:#ec5447}.b{fill:#fff}</style><path class="a" d="m11.7 21.7c-0.5 0-0.9-0.3-1-0.8q-0.2-0.8-0.2-1.7v-5.1c0-2 1.6-3.7 3.7-3.7 1.4 0 2.7 0.8 3.3 2.1 0.2 0.6 0 1.2-0.5 1.4-0.5 0.3-1.2 0-1.4-0.5-0.3-0.6-1.1-1-1.8-0.8-0.7 0.2-1.2 0.8-1.2 1.5v5.1q0 0.6 0.2 1.1c0.1 0.4 0 0.7-0.2 1-0.2 0.2-0.5 0.4-0.9 0.4z"/><path class="a" d="m16.8 25.5c-1 0-2-0.2-2.9-0.7-0.5-0.2-0.7-0.9-0.5-1.4 0.2-0.3 0.4-0.5 0.7-0.5 0.2-0.1 0.5-0.1 0.8 0 1.3 0.7 2.8 0.6 4-0.1 1.3-0.8 2-2.1 2-3.6v-5.1c0-3.7-3-6.7-6.7-6.7-0.6 0-1.1-0.5-1.1-1.1 0-0.6 0.5-1.1 1.1-1.1 4.9 0 8.9 4 8.9 8.9v5.1c0 3.5-2.8 6.3-6.3 6.3z"/><path class="a" d="m16.8 30.7c-6.4 0-11.6-5.1-11.6-11.5v-5.1c0-3.2 1.7-6.1 4.5-7.7 0.3-0.2 0.7-0.2 1 0 0.4 0.2 0.6 0.6 0.6 0.9 0 0.4-0.2 0.8-0.5 1-2.1 1.2-3.4 3.4-3.4 5.8v5.1c0 5.2 4.2 9.4 9.4 9.4q2.3 0 4.3-1.1c0.5-0.2 1.2 0 1.5 0.5 0.2 0.5 0 1.2-0.5 1.4-1.6 0.9-3.5 1.3-5.3 1.3z"/><path class="a" d="m24.9 26.9c-0.5 0-0.8-0.2-1-0.6-0.2-0.4-0.1-0.8 0.1-1.1 1.4-1.7 2.2-3.8 2.2-6v-5.1c0-5-3.2-9.5-7.8-11.2 0 0-1.2-0.4-2.2-0.6-0.9-0.1-2-0.2-2.1-0.2-6.6 0-11.9 5.4-11.9 12v5.1c0 0.6-0.5 1.1-1.1 1.1-0.6 0-1.1-0.5-1.1-1.1v-5.1c0-7.8 6.4-14.1 14.2-14.1 0 0 1.3 0 2.4 0.2 1.1 0.2 2.4 0.7 2.5 0.7 5.5 2 9.2 7.3 9.2 13.2v5.1c0 2.7-0.9 5.3-2.6 7.3-0.2 0.3-0.5 0.4-0.8 0.4zm-17.3 6.1q-0.3 0-0.6-0.2c-3-2.2-5.2-5.3-6.3-8.8-0.2-0.6 0.1-1.2 0.7-1.3 0.6-0.2 1.2 0.1 1.4 0.7 0.9 3.1 2.8 5.8 5.5 7.7 0.3 0.2 0.5 0.7 0.3 1.2-0.1 0.4-0.5 0.7-1 0.7z"/><path fill-rule="evenodd" class="b" d="m41.9 10.9q0.5 0 0.9 0.1 0.3 0.1 0.6 0.2 0.1 0 0.1 0.1l-0.4 1.7q0 0.1 0 0.1-0.1 0-0.1 0c-0.2 0-0.5-0.1-0.6-0.1q-0.3-0.1-0.7-0.1-1.8 0-3 2.1v7.4c0 0.1 0 0.2-0.1 0.2h-1.8c-0.1 0-0.2-0.1-0.2-0.2v-11q0-0.1 0.1-0.1 0-0.1 0.1-0.1h1.6c0.1 0 0.1 0.1 0.1 0.2l0.2 1.4q1.2-1.9 3.2-1.9zm12.4 5.1q0 0.3-0.1 0.6 0 0.1 0 0.3c0 0.1-0.1 0.2-0.3 0.2h-7.7c0.1 1.8 0.7 4 3.5 4 0.9 0 1.9-0.3 2.8-0.8 0-0.1 0.2-0.2 0.4-0.3 0 0 0.1 0 0.2 0.1l0.8 1.2c0 0 0 0.1-0.1 0.2-1 0.7-2.1 1.2-3.4 1.3-3.9 0.4-6.3-1.9-6.3-6 0-3.5 2.2-5.9 5.5-5.9 2.9 0 4.7 1.9 4.7 5.1zm-2.9-2.7q-0.6-0.7-1.8-0.7c-1.7 0-2.9 1.2-3.3 3h5.9c0-1-0.2-1.8-0.8-2.3zm12.8-7c0 0 0.1-0.1 0.2-0.1h1.8c0.1 0 0.1 0.1 0.1 0.1v16.1c0 0.1 0 0.2-0.1 0.2h-1.6q-0.1-0.1-0.1-0.2l-0.2-1.1q-1.5 1.5-3.4 1.5c-3 0-4.7-2.3-4.7-6.1 0-3.5 1.8-5.7 4.7-5.7q1.8 0 3.3 1.4zm-2.9 6.4c-1.9 0-3 1.4-3 4 0 2.8 1.1 4.3 3 4.3 1.1 0 2-0.4 2.9-1.5v-5.3c-0.9-1.1-1.9-1.5-2.9-1.5zm12.4 3.2c1.8 0.5 3.8 1 3.8 3.5 0 2.1-1.6 3.4-4.3 3.4q-2.1 0-3.9-0.9c-0.1-0.1-0.2-0.2-0.3-0.2q-0.1-0.1-0.2-0.2 0-0.1 0.1-0.2l0.7-1.1c0-0.1 0.2-0.2 0.3-0.1q0.1 0.1 0.3 0.1c0.9 0.6 2 0.8 3 0.8 0.9 0 2.3-0.2 2.3-1.5 0-1.1-1.2-1.4-2.6-1.8-1.8-0.5-3.9-1-3.9-3.4 0-2 1.7-3.4 4.2-3.4 1.1 0 2.3 0.3 3.4 0.7q0.1 0.1 0.3 0.2 0.1 0 0.2 0.1 0 0.1-0.1 0.2l-0.6 1.2c0 0.1-0.2 0.1-0.3 0.1q-0.2-0.1-0.4-0.2c-0.8-0.3-1.7-0.5-2.5-0.5-1.3 0-2.1 0.5-2.1 1.5 0 1.1 1.2 1.4 2.6 1.7zm11.7 4.8c0.1 0 0.2-0.1 0.3-0.1q0.1-0.1 0.2-0.1 0.1 0 0.1 0.1l0.6 1c0.1 0.1 0.1 0.3-0.1 0.4-0.1 0.1-0.3 0.2-0.4 0.2-0.6 0.4-1.4 0.6-2.1 0.6-2.1 0-3.2-1.1-3.2-3.4v-6.6h-1.8c-0.1 0-0.1 0-0.1-0.1v-1.4c0-0.1 0-0.1 0.1-0.1h1.8v-3.1c0-0.1 0.1-0.2 0.2-0.2h1.7c0.1 0 0.2 0.1 0.2 0.2v3.1h3c0.1 0 0.2 0 0.2 0.1v1.4c0 0.1-0.1 0.1-0.2 0.1h-3v6.6c0 1.1 0.4 1.6 1.3 1.6q0.6 0 1.2-0.3zm11.5-0.7q0 0.8 0.7 0.9 0.1 0 0.2 0c0.1 0 0.2 0.1 0.2 0.3v1.1q0 0.1-0.1 0.2 0 0-0.2 0c-0.1 0-0.3 0-0.4 0-1.1-0.1-1.8-0.4-2.2-1.2-0.7 0.7-1.9 1.5-3.6 1.5-2 0-3.4-1.2-3.4-3 0-2.4 2.3-3.7 6.7-3.9v-1.5c0-1.1-0.7-1.7-2-1.7q-1.3 0-2.9 0.8c-0.1 0-0.3 0.1-0.5 0.2q0 0-0.1 0-0.1-0.1-0.2-0.2l-0.6-1.2q0-0.1 0-0.2 0-0.1 0.1-0.1 0.3-0.2 0.6-0.3c1.2-0.5 2.5-0.8 3.6-0.8 2.7 0 4.1 1.3 4.1 3.6zm-2.1-2.7c-3.1 0.2-4.6 1-4.6 2.4 0 0.8 0.7 1.4 1.7 1.4 1.2 0 2.2-0.5 2.9-1.3zm18.1-6.4c2.3 0 3.5 1.4 3.5 3.9v7.5c0 0.1 0 0.2-0.1 0.2h-1.8c-0.1 0-0.2-0.1-0.2-0.2v-7.5q0.1-2.2-1.8-2.2c-1.1 0-2.2 0.5-3.1 1.5 0 0.3 0.1 0.5 0.1 0.8v7.4c0 0.1-0.1 0.2-0.2 0.2h-1.8c-0.1 0-0.1-0.1-0.1-0.2v-7.5c0-1.5-0.6-2.2-1.9-2.2-1.1 0-2.2 0.6-3.1 1.6v8.1c0 0.1-0.1 0.2-0.2 0.2h-1.7c-0.1 0-0.2-0.1-0.2-0.2v-11q0-0.1 0.1-0.1 0-0.1 0.1-0.1h1.6c0.1 0 0.2 0.1 0.2 0.2l0.1 1.1c1-1 2.3-1.5 3.5-1.5q2.2 0 3.1 1.7 1.8-1.7 3.9-1.7zm16.4 5.7c0 3.9-1.8 6.1-4.7 6.1q-1.8 0-3.3-1.4v5.3q0 0-0.1 0.1 0 0-0.1 0h-1.8c0 0-0.1 0-0.1-0.1 0-0.1 0-15.4 0-15.4q0.1-0.1 0.1-0.1h1.6q0.1 0 0.2 0.2l0.1 1.1c1-1 2.2-1.5 3.4-1.5 2.9 0 4.7 2.2 4.7 5.7zm-2.1 0c0-2.5-1.1-4-3-4-1 0-2 0.5-2.9 1.6v5.3q1.3 1.5 2.9 1.5c1.9 0 3-1.6 3-4.4z"/></svg>