<svg version="1.2" xmlns="http://www.w3.org/2000/svg" viewBox="0 0 124 32" width="124" height="32"><style>.a{fill:#fff}</style><path fill-rule="evenodd" class="a" d="m24.5 10l-2 9c-0.1 0.5-0.4 1.1-0.7 1.5l-8.6 11c-0.3 0.3-0.6 0.4-0.9 0.4-0.3 0-0.6-0.1-0.8-0.4l-8.7-11c-0.3-0.4-0.6-1-0.7-1.5l-2-9c-0.1-0.5 0-1.3 0.4-1.7l5.7-7.2c0.3-0.5 1-0.8 1.5-0.8h9.2c0.5 0 1.2 0.4 1.5 0.8l5.7 7.2c0.4 0.4 0.6 1.2 0.4 1.7zm-7.6-8.2h-8.2l8.1 10.2 6-3-5.6-7c0-0.1-0.2-0.2-0.3-0.2zm-13.4 16.7l11.9-5.9-8.2-10.4-5.6 7c-0.1 0.1-0.1 0.4-0.1 0.5zm19.4-7.9l-18.8 9.2 8.2 10.3 8.3-10.5c0.2-0.2 0.4-0.6 0.4-0.9z"/><path fill-rule="evenodd" class="a" d="m31 7.7h6.5q2.1 0 3.7 0.5c1.2 0.4 2.2 0.8 3 1.5q1.2 1.1 1.9 2.7 0.6 1.6 0.6 3.8 0 2.1-0.7 3.6c-0.4 1-1.1 1.9-1.9 2.6q-1.2 1-2.9 1.5-1.7 0.6-3.7 0.6h-6.5zm6.2 13.9q3 0 4.5-1.4c1.1-0.9 1.6-2.3 1.6-4q0-2.7-1.5-4.2-1.4-1.5-4.6-1.5h-2.9v11.1z"/><path fill-rule="evenodd" class="a" d="m48 18.6q0-1.3 0.5-2.5 0.5-1.1 1.4-1.9 0.8-0.9 2-1.4c0.8-0.3 1.7-0.5 2.7-0.5q1.5 0 2.7 0.5 1.2 0.5 2.1 1.4c0.5 0.5 1 1.2 1.3 1.9q0.5 1.2 0.5 2.5 0 1.3-0.5 2.4-0.5 1.1-1.3 2-0.9 0.9-2.1 1.4c-0.8 0.3-1.7 0.5-2.7 0.5q-1.5 0-2.7-0.5-1.2-0.5-2-1.4-0.9-0.9-1.4-2c-0.3-0.8-0.5-1.6-0.5-2.4zm6.6 3.7c0.6 0 1.1-0.1 1.6-0.4 0.4-0.2 0.8-0.5 1.1-0.9q0.3-0.4 0.6-1.2c0.1-0.4 0.2-0.8 0.2-1.3q0-0.6-0.2-1.3-0.3-0.6-0.6-1.2c-0.3-0.3-0.7-0.7-1.1-0.9q-0.7-0.3-1.6-0.3-0.9 0-1.5 0.3c-0.5 0.3-0.8 0.6-1.1 0.9q-0.4 0.5-0.7 1.2-0.2 0.7-0.2 1.3c0 0.5 0.1 0.9 0.2 1.3 0.2 0.5 0.4 0.9 0.7 1.2 0.3 0.4 0.6 0.7 1.1 0.9q0.6 0.4 1.5 0.4z"/><path class="a" d="m62.7 12.7h2.9l0.1 1.3q0.2-0.2 0.5-0.5c0.2-0.2 0.5-0.4 0.8-0.6 0.2-0.1 0.6-0.2 1-0.3q0.5-0.2 1.3-0.2 2.4 0 3.6 1.7c0.6-0.6 1.3-1 1.9-1.3 0.7-0.2 1.4-0.4 2.3-0.4q2.3 0 3.6 1.3 1.2 1.3 1.2 3.6v7.2h-3.1v-7.2c0-0.7-0.2-1.3-0.6-1.7q-0.5-0.6-1.6-0.6-0.6-0.1-1.2 0.2c-0.3 0.2-0.6 0.4-0.9 0.7-0.2 0.2-0.4 0.6-0.5 1q-0.2 0.6-0.2 1.2v6.4h-3.1v-7.2c0-0.7-0.2-1.3-0.6-1.7q-0.5-0.6-1.6-0.6-0.6-0.1-1.1 0.2c-0.4 0.2-0.7 0.4-1 0.7-0.2 0.2-0.4 0.6-0.5 1q-0.2 0.6-0.2 1.2v6.4h-3.1v-11.8z"/><path fill-rule="evenodd" class="a" d="m91.4 23.4c-0.3 0.4-0.8 0.7-1.5 1-0.7 0.3-1.4 0.5-2.2 0.5-0.5 0-1.1-0.1-1.6-0.3q-0.7-0.2-1.3-0.7-0.7-0.4-1-1.2-0.4-0.7-0.4-1.7 0-0.9 0.4-1.8c0.2-0.5 0.6-0.9 1.1-1.3q0.7-0.5 1.7-0.8 1-0.3 2.1-0.3 0.4 0 0.9 0c0.2 0 0.6 0.1 0.8 0.1 0.3 0 0.6 0 1 0v-0.3q0-0.9-0.8-1.4c-0.5-0.3-1.1-0.5-1.9-0.5-0.9 0-1.5 0.2-2.1 0.4q-0.8 0.3-1.3 0.7l-1.4-2.1q0.3-0.2 0.8-0.5 0.5-0.3 1.1-0.5 0.6-0.2 1.4-0.3 0.9-0.2 1.9-0.2 1.2 0 2.1 0.4 1 0.3 1.7 0.8 0.7 0.6 1 1.4c0.3 0.5 0.4 1.1 0.4 1.7v7.9h-2.8zm0-4.2c-0.3 0-0.6-0.1-0.9-0.1-0.3 0-0.5 0-0.8 0-0.3 0-0.5 0-0.7 0q-1.5 0-2.1 0.6-0.6 0.5-0.6 1.2c0 0.5 0.2 1 0.6 1.2 0.4 0.3 0.9 0.4 1.6 0.4q0.6 0 1.1-0.1c0.3-0.1 0.6-0.3 0.9-0.5q0.4-0.3 0.6-0.7 0.3-0.4 0.3-0.9z"/><path class="a" d="m96.2 12.7h3.1v11.8h-3.1z"/><path class="a" d="m101.1 12.7h3l0.1 1.3c0.1-0.2 0.3-0.3 0.5-0.5 0.2-0.2 0.5-0.4 0.8-0.5 0.3-0.2 0.6-0.3 1-0.4q0.6-0.2 1.3-0.1c1.5 0 2.7 0.4 3.5 1.3q1.2 1.3 1.2 3.5v7.2h-3.1v-7.2c0-0.7-0.2-1.3-0.6-1.7q-0.6-0.6-1.6-0.6-0.7-0.1-1.2 0.2-0.5 0.3-1 0.7-0.3 0.4-0.6 1-0.2 0.6-0.2 1.2v6.4h-3v-11.8z"/><path class="a" d="m114.3 24.5q0.5-1.8 1.4-3.9 0.8-2.1 1.7-4 0.9-1.9 1.7-3.5 0.9-1.6 1.4-2.5h-7.9v-2.9h11.2v2.8c-0.2 0.4-0.5 0.9-0.8 1.5q-0.6 1-1.1 2.2-0.6 1.2-1.2 2.6-0.6 1.3-1.2 2.7c-0.3 0.9-0.7 1.8-1 2.7q-0.5 1.2-0.7 2.3z"/><path class="a" d="m96.4 10.3c-0.4-0.4-0.6-0.8-0.6-1.4q0-0.8 0.6-1.4c0.4-0.3 0.8-0.5 1.4-0.5q0.7 0 1.3 0.5c0.4 0.4 0.6 0.8 0.6 1.4q0 0.8-0.6 1.4c-0.4 0.3-0.8 0.5-1.3 0.5q-0.8 0-1.4-0.5z"/></svg>