<svg version="1.2" xmlns="http://www.w3.org/2000/svg" viewBox="0 0 178 37" width="178" height="37"><style>.a{fill:#fff}.b{fill:none;stroke:#35c2ff;stroke-width:1.5}</style><path fill-rule="evenodd" class="a" d="m57.7 10.9c1.4 0 3.2 0.1 4.9 0.6l-0.2 2.3c-1.3-0.1-3.1-0.1-4.7-0.1-1.6 0-2.2 0.1-2.2 1.4 0 1 0.5 1.3 1.6 1.7l2.8 1c2.4 0.8 3.2 2.2 3.2 4.4 0 3.5-1.5 4.4-5.6 4.4-0.9 0-2.8-0.1-5.1-0.6l0.2-2.4c2.8 0.1 4 0.1 4.9 0.1 1.8 0 2.3-0.2 2.3-1.5 0-1-0.5-1.3-1.5-1.6l-3-1.1c-2.3-0.8-3.1-2.2-3.1-4.4 0-3.5 1.6-4.2 5.5-4.2zm17.7 12.8l0.2 2.4c-2.1 0.3-4.7 0.3-7 0.3-2 0-3.3-1.2-3.3-3.1v-9.1c0-1.9 1.3-3.1 3.3-3.1 2.3 0 4.9 0 7 0.3l-0.2 2.4h-5.7c-0.8 0-1.1 0.4-1.1 1.1v2.3h6v2.4h-6v2.9c0 0.9 0.3 1.2 1.1 1.2zm14.3 2.6h-3.5l-1.1-4.6c-0.3-1-0.7-1.3-1.6-1.3h-2.3v5.9h-3.3v-15.1c1.8-0.2 3-0.2 5.7-0.2 3.9 0 5.6 1 5.6 4.5 0 2.1-0.8 3.4-2.9 3.7v0.1c0.7 0.2 1.8 0.7 2.1 2.3zm-8.5-8.5h2.3c1.8 0 2.3-0.5 2.3-2.1 0-1.7-0.5-2.1-2.3-2.1h-2.3zm16.4-6.8c4.1 0 5.4 1 5.4 4.9 0 3.9-1.3 4.9-5 4.9-1 0-2 0-2.8-0.2v5.6h-3.3v-15c1.8-0.2 3-0.2 5.7-0.2zm-2.4 7.3h2.3c1.7-0.1 2.2-0.5 2.2-2.4 0-1.9-0.5-2.4-2.2-2.4h-2.3zm23.1-3c1.8 0 2.8 1.1 2.8 3v8h-2v-7.4c-0.1-1.2-0.4-1.8-1.6-1.8-1 0-1.7 0.5-3.3 1.6v7.6h-2v-7.4c0-1.3-0.5-1.8-1.5-1.8-1 0-1.7 0.5-3.3 1.6v7.6h-2.1v-10.7h1.8l0.1 1.6c1.4-1.2 2.7-1.9 4.2-1.9q2.2 0.1 2.7 1.9c1.4-1.2 2.8-1.9 4.2-1.9zm10.9 9.5c1.1 0 2.6-0.1 3.7-0.3l0.2 1.4c-1 0.5-2.9 0.7-4.2 0.7-3.7 0-5.1-1.5-5.1-5.7 0-4.2 1.5-5.6 4.9-5.6 3.3 0 4.7 1.3 4.7 3.6 0 2-0.8 3.1-2.6 3.1h-4.8c0.3 2.3 1.2 2.8 3.2 2.8zm-0.4-7.7c-2 0-2.7 0.7-2.8 3.3h4.2c0.9 0 1.1-0.8 1.1-1.5-0.1-1.3-0.7-1.8-2.5-1.8zm10.2 0.2v5.9c0 1 0.3 1.4 1.4 1.4h1.5l0.2 1.6c-0.7 0.2-1.9 0.3-2.5 0.3-1.8 0-2.7-1.1-2.7-3v-6.2h-2v-1.6l2-0.1v-3.1h2.1v3.1h3.2v1.7zm12.3-2l-0.2 2h-0.7c-1.1 0-2.1 0.5-3.8 1.3v7.7h-2.1v-10.7h1.7l0.2 1.7c1.5-1.2 3-2 4.4-2zm2.6-4.2h1c0.5 0 0.6 0.2 0.6 0.6v1.2q0.1 0.6-0.6 0.7h-1q-0.6-0.1-0.6-0.7v-1.2q0-0.6 0.6-0.6zm1.6 15.2h-2.1v-10.7h2.1zm7.9-10.9c1 0 2.4 0.1 3.5 0.5l-0.3 1.4c-0.9-0.1-2.1-0.1-2.8-0.1-2.5 0-3.3 0.8-3.3 3.8 0 3 0.8 3.8 3.3 3.8 0.6 0 2 0 3.1-0.2l0.2 1.4c-1.1 0.4-2.4 0.6-3.7 0.6-3.7 0-5.1-1.5-5.1-5.6 0-4.1 1.4-5.6 5.1-5.6zm9.7 0c1.4 0 3.2 0.1 4.5 0.3l-0.2 1.6c-1.3-0.1-2.6-0.1-4-0.1-1.9 0-2.4 0-2.4 1.2 0 1 0.5 1.1 1.4 1.4l3 0.7c1.8 0.5 2.5 1.1 2.5 3 0 2.6-1.4 3.1-4.6 3.1-0.7 0-2.3-0.1-4.2-0.3l0.2-1.6c0.9 0.1 2.2 0.1 3.6 0.1 2.3 0 3-0.2 3-1.3 0-1-0.6-1.1-1.6-1.4l-3-0.7c-1.7-0.5-2.4-1.3-2.4-3 0-2.5 1.2-3 4.2-3z"/><path class="b" d="m4.8 2.9c0 1-0.8 1.8-1.8 1.8-1 0-1.8-0.8-1.8-1.8 0-1 0.8-1.8 1.8-1.8 1 0 1.8 0.8 1.8 1.8z"/><path class="b" d="m11.8 9.9c-1 0-1.8-0.8-1.8-1.8 0-1 0.8-1.8 1.8-1.8 1 0 1.8 0.8 1.8 1.8 0 1-0.8 1.8-1.8 1.8z"/><path class="b" d="m20.8 4.7c-1 0-1.8-0.8-1.8-1.8 0-1 0.8-1.8 1.8-1.8 1 0 1.8 0.8 1.8 1.8 0 1-0.8 1.8-1.8 1.8z"/><path class="b" d="m31.4 8.1c0 1-0.8 1.8-1.8 1.8-1 0-1.8-0.8-1.8-1.8 0-1 0.8-1.8 1.8-1.8 1 0 1.8 0.8 1.8 1.8z"/><path class="b" d="m11.8 20.2c-1 0-1.8-0.8-1.8-1.8 0-1 0.8-1.8 1.8-1.8 1 0 1.8 0.8 1.8 1.8 0 1-0.8 1.8-1.8 1.8z"/><path class="b" d="m2.9 25.4c-1 0-1.8-0.8-1.8-1.8 0-1 0.8-1.8 1.8-1.8 1 0 1.8 0.8 1.8 1.8 0 1-0.8 1.8-1.8 1.8z"/><path class="b" d="m11.8 30.5c-1 0-1.8-0.8-1.8-1.8 0-1 0.8-1.8 1.8-1.8 1 0 1.8 0.8 1.8 1.8 0 1-0.8 1.8-1.8 1.8z"/><path class="b" d="m20.8 25.4c-1 0-1.8-0.8-1.8-1.8 0-1 0.8-1.8 1.8-1.8 1 0 1.8 0.8 1.8 1.8 0 1-0.8 1.8-1.8 1.8z"/><path class="b" d="m20.8 35.8c-1 0-1.8-0.8-1.8-1.8 0-1 0.8-1.8 1.8-1.8 1 0 1.8 0.8 1.8 1.8 0 1-0.8 1.8-1.8 1.8z"/><path class="b" d="m29.8 30.7c-1 0-1.8-0.9-1.8-1.9 0-1 0.8-1.8 1.8-1.8 1 0 1.8 0.8 1.8 1.8 0 1-0.8 1.9-1.8 1.9z"/><path class="b" d="m38.6 35.8c-1 0-1.8-0.9-1.8-1.9 0-1 0.8-1.8 1.8-1.8 1 0 1.8 0.8 1.8 1.8 0 1-0.8 1.9-1.8 1.9z"/><path class="b" d="m29.7 20.3c-1 0-1.8-0.8-1.8-1.8 0-1 0.8-1.8 1.8-1.8 1 0 1.8 0.8 1.8 1.8 0 1-0.8 1.8-1.8 1.8z"/><path class="b" d="m20.8 15.1c-1 0-1.8-0.8-1.8-1.8 0-1 0.8-1.8 1.8-1.8 1 0 1.8 0.8 1.8 1.8 0 1-0.8 1.8-1.8 1.8z"/><path class="b" d="m38.6 15c-1 0-1.8-0.8-1.8-1.8 0-1 0.8-1.8 1.8-1.8 1 0 1.8 0.8 1.8 1.8 0 1-0.8 1.8-1.8 1.8z"/><path class="b" d="m4 3.6l6.3 3.7"/><path class="b" d="m13.2 7.1l6-3.5"/><path class="b" d="m22.1 33.1l6-3.5"/><path class="b" d="m22.6 4l5.5 3.2"/><path class="b" d="m31.3 29.5l5.5 3.2"/><path class="b" d="m37.1 14.2l-5.9 3.3"/><path class="b" d="m22.2 14.2l5.9 3.3"/><path class="b" d="m13.1 29.5l5.9 3.4"/><path class="b" d="m11.8 9.9v6.3"/><path class="b" d="m29.7 20.8v6.3"/><path class="b" d="m4.5 22.5l5.6-3.2"/><path class="b" d="m13.6 19.4l5.3 3.1"/></svg>